Coordinates
version=1
nRows=9
nColumns=36
inDegrees=yes

Units are S.I. units (second, meters, Newtons, ...)
If the header above contains a line with 'inDegrees', this indicates whether rotational values are in degrees (yes) or radians (no).

endheader
time	pelvis_tilt	pelvis_list	pelvis_rotation	pelvis_tx	pelvis_ty	pelvis_tz	hip_flexion_r	hip_adduction_r	hip_rotation_r	knee_angle_r	knee_angle_r_beta	ankle_angle_r	subtalar_angle_r	mtp_angle_r	hip_flexion_l	hip_adduction_l	hip_rotation_l	knee_angle_l	knee_angle_l_beta	ankle_angle_l	subtalar_angle_l	mtp_angle_l	lumbar_extension	lumbar_bending	lumbar_rotation	arm_flex_r	arm_add_r	arm_rot_r	elbow_flex_r	pro_sup_r	arm_flex_l	arm_add_l	arm_rot_l	elbow_flex_l	pro_sup_l
      5.15000000	     -7.57726795	      3.33269240	     -1.92212504	      0.88426972	      0.99838879	      0.01130390	     13.71365431	     -6.16077484	    -13.53034737	      5.28081540	      0.09216762	    -19.29023005	      9.38828557	     -7.49999987	     11.06631399	     -6.87390912	    -10.57613569	      6.46188552	      0.11278118	    -18.25072582	     11.69041952	     -7.49999987	      9.98322263	      0.31312170	     -1.24542685	     69.56909028	    -10.70653373	     12.63757401	     91.01710580	     87.30771659	     69.48604304	    -20.74968504	      8.64940981	     98.52355279	     83.30202801
      5.16666670	     -7.29546550	      2.93658122	     -1.40365203	      0.88612414	      0.97516276	      0.00886056	     13.73825534	     -6.21992889	    -12.96024162	      7.83992328	      0.13683247	    -11.65139186	      7.91370253	     -7.49999987	     11.62440152	     -7.57094562	     -9.64434649	      8.20014517	      0.14311953	    -13.16883511	     10.62943772	     -7.49999987	      9.59635871	      0.65298527	     -0.73594927	     71.45843326	    -11.86706204	     13.11565254	     89.99670011	     89.09141660	     71.29692500	    -18.55855581	      9.66903292	     97.12076869	     85.27894276
      5.18333330	     -6.85840998	      2.62997205	     -1.25834514	      0.88529887	      0.94564809	      0.00714206	     13.53726516	     -6.25953579	    -11.66436078	     10.61704501	      0.18530239	     -2.96520240	      6.79590059	     -7.49999987	     11.91757358	     -8.20162023	     -9.26472061	     10.72432851	      0.18717484	     -7.98681689	      8.60477864	     -7.49999987	      9.03827601	      1.24721542	     -0.72780307	     72.32116742	    -12.50877191	     14.09876923	     89.45194319	     87.87704444	     72.31079305	    -16.79810862	      9.65847559	     96.48293468	     84.25125526
      5.20000000	     -6.30503599	      2.45124687	     -1.12051631	      0.89499469	      0.92353793	      0.01206887	     14.21011825	     -6.34697590	    -10.21902780	     15.77456132	      0.27531803	      8.80458940	      5.09768607	     -7.49999987	     12.17181318	     -8.85701396	     -8.44128230	     14.99345314	      0.26168512	      0.23590512	      6.22369753	     -7.49999987	      8.63805973	      1.46800256	     -0.53372202	     71.86178877	    -13.13966839	     14.13324960	     89.61547994	     89.53201440	     71.04361469	    -15.39940745	      9.79270873	     96.41389412	     86.69936133
      5.21666670	     -5.58346746	      2.52202645	     -1.70349666	      0.89650173	      0.89144719	      0.00976106	     17.39011399	     -6.91799977	     -8.06084954	     25.79867777	      0.45027187	     20.62987780	      2.05293053	     -7.49999987	     13.82940508	     -9.22051272	     -7.54612211	     22.14378171	      0.38648190	     12.16556776	      3.49999146	     -7.49999987	      7.42500391	      1.60299160	     -0.42397837	     71.90044659	    -12.80668370	     15.53419529	     89.07926716	     86.32198972	     70.30098969	    -14.67662006	     10.18414370	     96.06583128	     83.85497731
      5.23333330	     -5.36592364	      3.15938973	     -2.40904046	      0.89264223	      0.87937672	      0.01451418	     22.65899487	     -7.62963511	     -5.05010827	     37.37486429	      0.65231444	     30.38205099	      0.15228454	     -7.49999987	     17.02516752	     -9.10745509	     -6.73229174	     30.33711916	      0.52948261	     21.76063114	      0.68436741	     -7.49999987	      6.49143789	      0.86509796	     -0.21756061	     69.26308268	    -11.93159664	     15.07290695	     90.41280196	     86.86988050	     66.60396618	    -14.39074402	      8.64488156	     99.19562043	     84.36865373
      5.25000000	     -5.42450434	      3.82994387	     -3.06422444	      0.88861271	      0.87270072	      0.01457096	     28.02040858	     -7.92073086	     -2.27456062	     47.33647248	      0.82617730	     35.98776425	     -1.25397387	     -7.49999987	     21.36194413	     -8.73259317	     -5.05387147	     39.10548843	      0.68251953	     27.69481843	     -2.35397707	     -7.49999987	      5.65609600	      0.21504451	     -0.63210202	     65.42739084	    -10.10670274	     14.62808173	     90.42212171	     87.06364510	     61.55120648	    -14.22064270	      7.53003503	    100.92977418	     84.46241906
      5.26666670	     -5.23738538	      4.06826041	     -3.76857281	      0.88375798	      0.87552938	      0.01627207	     31.53906571	     -7.36313154	     -0.44570573	     53.38317328	      0.93171214	     37.66119126	     -2.67135268	     -7.49999987	     24.70166503	     -8.60213952	     -3.34621219	     45.58326192	      0.79557800	     28.99256727	     -4.98464278	     -7.49999987	      4.42322026	      0.29457100	     -1.97106154	     60.07963770	     -7.22806642	     14.73413403	     88.59157262	     91.67272979	     54.47826851	    -14.28370201	      5.19485127	    101.70760530	     86.70066450
      5.28333330	     -4.88663778	      3.80235020	     -4.08203618	      0.88455173	      0.87080862	      0.01902828	     33.35627626	     -6.42998433	      0.51454096	     57.05378780	      0.99577645	     37.93844366	     -3.60408319	     -7.49999987	     26.91343086	     -9.08087615	     -2.18005707	     50.45313629	      0.88057335	     28.69495336	     -6.60636727	     -7.49999987	      3.20884100	      0.55954945	     -3.03807404	     54.11341748	     -4.92617623	     14.34766709	     85.35509693	     91.59471032	     48.53951738	    -13.10576814	      4.47060481	     97.75170257	     86.46983236
